<svg width="216" height="90" viewBox="0 0 216 90" fill="none" xmlns="http://www.w3.org/2000/svg">
<path d="M44.6089 23.478H87.6524V66.5215H44.6089V23.478ZM83.1836 62.0527V27.9468H49.0777V62.0317H83.1836V62.0527ZM52.9562 34.5867V47.5925C52.9562 53.5368 56.2235 57.057 61.7462 57.057C67.4375 57.057 70.7048 53.5368 70.7048 47.5925V34.5867H66.236V47.5925C66.236 50.9441 64.7816 52.8412 61.8516 52.8412C58.753 52.8412 57.3828 50.8598 57.3828 47.5925V34.5867H52.9562ZM76.4594 37.2427C78.0192 37.2427 79.2207 36.1255 79.2207 34.5656C79.2207 32.9215 78.1035 31.8043 76.4594 31.8043C74.8995 31.8043 73.698 32.9215 73.698 34.5656C73.7191 36.1255 74.9206 37.2427 76.4594 37.2427ZM74.225 39.3084V56.8041H78.6938V39.3084H74.225ZM100.911 49.6582C105.738 49.6582 108.921 46.8126 108.921 42.0909C108.921 37.5378 105.823 34.6078 100.911 34.6078H92.4795V56.9095H96.9482V49.7636H100.911V49.6582ZM100.405 46.117H96.885V38.1912H100.405C102.998 38.1912 104.368 39.6457 104.368 42.0698C104.368 44.6625 102.977 46.117 100.405 46.117ZM110.397 48.0984C110.397 53.3471 113.748 57.057 118.491 57.057C121.337 57.057 123.15 56.0241 124.182 54.38V56.8673H128.651V39.3084H124.182V42.0698C123.065 40.257 121.252 39.1398 118.491 39.1398C113.664 39.1398 110.397 42.934 110.397 48.0984ZM124.161 48.0984C124.161 51.1127 122.264 53.0941 119.503 53.0941C116.489 53.0941 114.95 50.9441 114.95 48.0984C114.95 44.9998 116.678 43.0183 119.503 43.0183C122.327 43.0183 124.161 45.0841 124.161 48.0984ZM139.823 53.0098C138.095 53.0098 137.673 52.2299 137.673 50.6911V43.1027H141.552V39.3084H137.673V34.4813H133.204V39.3084H131.139V43.1027H133.204V50.6911C133.204 54.8226 135.017 56.8041 139.317 56.8041H141.636V53.0098H139.823ZM148.529 41.8168V33.5538H144.06V56.8884H148.529V47.5925C148.529 44.5782 150.089 42.7654 152.745 42.7654C155.337 42.7654 156.707 44.4939 156.707 47.1498V56.8041H161.176V46.7283C161.176 42.1752 157.909 39.1609 153.777 39.1609C151.206 39.1398 149.562 40.0883 148.529 41.8168ZM160.839 33.4695V34.1651H162.293V38.6339H163.158V34.1651H164.528V33.4695H160.839ZM170.135 33.4695L168.322 37.601L166.594 33.4695H165.561V38.6339H166.341V34.671L168.069 38.6339H168.68L170.325 34.671V38.6339H171.104V33.4695H170.135Z" fill="#333333"/>
</svg>
