<svg width="216" height="90" viewBox="0 0 216 90" fill="none" xmlns="http://www.w3.org/2000/svg">
<path d="M68.087 25.043V64.9317H108.825L148.696 25.043H68.087ZM79.0573 32.469H79.0699C81.9693 32.469 85.4985 33.2852 88.0553 34.5951L85.302 39.3989C82.4933 38.0361 81.0902 37.9177 79.4906 37.8245C77.1151 37.6935 75.9211 38.5474 75.8934 39.4644C75.8808 40.5828 78.1505 41.5904 80.2891 42.2857C83.516 43.3109 87.6346 44.6863 88.2669 48.6638L94.184 33.0257H101.056L107.986 51.7471L107.958 33.0257H115.921C123.505 33.0257 127.072 35.5952 127.072 41.4871C127.072 46.7746 123.415 49.9385 117.208 49.9385H114.649L114.611 56.9691L102.567 56.9565L101.729 53.9009C100.482 54.3216 99.0785 54.5458 97.5948 54.5458C96.0607 54.5458 94.6148 54.3064 93.3452 53.8782L92.1487 56.959L85.4304 56.9716L85.7327 55.4224C85.6294 55.5156 85.5337 55.5937 85.4304 55.6743C83.647 57.1152 81.3773 57.7877 78.5963 57.8381H77.8734C74.843 57.8784 71.8504 57.0925 69.2155 55.5811L71.6665 50.7143C74.3165 52.2887 75.9866 52.6288 78.2286 52.591C79.3949 52.5633 80.2337 52.3517 80.7854 51.7874C81.1154 51.4474 81.2992 51.0141 81.3118 50.5405C81.3345 49.281 79.5259 48.6941 77.3343 48.0089C75.5508 47.4572 73.5155 46.699 71.9411 45.5302C70.0669 44.1674 69.1601 42.4343 69.213 39.9959C69.2256 38.2628 69.9082 36.6103 71.1148 35.3785C72.8605 33.5673 75.6692 32.4766 79.0548 32.4766L79.0573 32.469ZM114.636 38.0714V44.4772H116.397C118.717 44.4772 120.581 43.7014 120.581 41.2352C120.581 38.8472 118.717 38.0714 116.397 38.0714H114.636ZM97.552 40.6559L95.0455 48.5782C95.7937 48.8679 96.6602 49.0241 97.5772 49.0241C98.484 49.0241 99.338 48.8654 100.068 48.6034L97.6024 40.6408L97.552 40.6559Z" fill="black"/>
</svg>
