<svg width="216" height="90" viewBox="0 0 216 90" fill="none" xmlns="http://www.w3.org/2000/svg">
<path d="M73.1204 45.8445L80.7323 53.4564L75.3694 58.8193L62.3945 45.8445L75.3694 32.8696L80.7323 38.2326L73.1204 45.8445Z" fill="black"/>
<path d="M73.1204 45.8445L60.1456 58.8193L54.7827 53.4564L62.3946 45.8445L54.7827 38.2326L60.1456 32.8696L73.1204 45.8445Z" fill="#333333"/>
<path d="M97.34 39.8755C96.3886 39.8755 95.5236 40.0485 94.8316 40.308C94.1396 40.5675 93.6206 40.9135 93.1881 41.4325V40.0485H90.1606V52.7638H93.2746V46.3629C93.2746 45.1519 93.6206 44.2869 94.1396 43.6814C94.7451 43.0759 95.6101 42.73 96.6481 42.73C97.5995 42.73 98.2915 42.9894 98.724 43.5084C99.243 44.0274 99.5025 44.8059 99.5025 45.9304V52.8503H102.616V45.5844C102.616 43.7679 102.097 42.384 101.146 41.4325C100.195 40.3945 98.897 39.8755 97.34 39.8755Z" fill="black"/>
<path d="M108.671 40.0483H105.557V52.7637H108.671V40.0483Z" fill="black"/>
<path d="M108.498 35.0317C108.152 34.6857 107.633 34.5127 107.114 34.5127C106.595 34.5127 106.076 34.6857 105.73 35.0317C105.384 35.3777 105.125 35.8102 105.125 36.3292C105.125 36.8482 105.298 37.2807 105.73 37.6267C106.076 37.9726 106.595 38.1456 107.114 38.1456C107.72 38.1456 108.152 37.9726 108.498 37.6267C108.844 37.2807 109.017 36.7617 109.017 36.2427C109.104 35.7237 108.931 35.2912 108.498 35.0317Z" fill="black"/>
<path d="M118.965 39.8755C118.013 39.8755 117.148 40.0485 116.456 40.308C115.764 40.5675 115.245 40.9135 114.813 41.4325V40.0485H111.785V52.7638H114.899V46.3629C114.899 45.1519 115.245 44.2869 115.764 43.6814C116.37 43.0759 117.235 42.73 118.273 42.73C119.224 42.73 119.916 42.9894 120.349 43.5084C120.868 44.0274 121.127 44.8059 121.127 45.9304V52.8503H124.241V45.5844C124.241 43.7679 123.722 42.384 122.771 41.4325C121.819 40.3945 120.522 39.8755 118.965 39.8755Z" fill="black"/>
<path d="M133.929 49.8231C133.497 50.1691 132.978 50.3421 132.372 50.3421C131.853 50.3421 131.421 50.1691 131.161 49.9096C130.902 49.6501 130.729 49.1311 130.729 48.6121V42.6437H134.102V40.1352H130.729V37.2808H127.615V40.1352H125.539V42.6437H127.615V48.5256C127.615 49.9096 127.961 51.0341 128.739 51.7261C129.518 52.4181 130.556 52.8506 132.026 52.8506C132.545 52.8506 133.151 52.7641 133.583 52.6776C134.102 52.5046 134.535 52.3316 134.881 51.9856L134.967 51.8991L134.102 49.6501L133.929 49.8231Z" fill="black"/>
<path d="M147.423 42.9894C146.904 42.038 146.125 41.2595 145.174 40.654C144.222 40.135 143.098 39.8755 141.887 39.8755C140.676 39.8755 139.551 40.135 138.513 40.7405C137.562 41.2595 136.697 42.038 136.178 43.0759C135.659 44.0274 135.313 45.1519 135.313 46.4494C135.313 47.6604 135.572 48.7849 136.178 49.8229C136.783 50.7743 137.562 51.5528 138.6 52.1583C139.638 52.6773 140.849 53.0233 142.233 53.0233C143.357 53.0233 144.309 52.8503 145.174 52.5043C146.039 52.1583 146.731 51.6393 147.336 50.9473L147.423 50.8608L145.693 48.8714L145.606 48.9579C144.741 49.8229 143.617 50.2554 142.319 50.2554C141.281 50.2554 140.416 49.9959 139.724 49.4769C139.032 48.9579 138.6 48.3524 138.427 47.4874H148.201V47.4009C148.201 47.0549 148.288 46.7089 148.288 46.5359C148.288 45.1519 147.942 44.0274 147.423 42.9894ZM139.551 43.2489C140.157 42.73 140.935 42.4705 141.887 42.4705C142.838 42.4705 143.617 42.73 144.222 43.2489C144.828 43.7679 145.174 44.4599 145.347 45.2384H138.513C138.6 44.4599 138.946 43.7679 139.551 43.2489Z" fill="black"/>
<path d="M156.592 46.2763L161.349 40.0483H157.976L154.948 44.0273L151.921 40.0483H148.461L153.132 46.2763L148.201 52.7637H151.748L154.862 48.4387L158.062 52.7637H161.609L156.592 46.2763Z" fill="black"/>
</svg>
