<svg width="216" height="90" viewBox="0 0 216 90" fill="none" xmlns="http://www.w3.org/2000/svg">
<path d="M55.8133 45.7163C55.9216 46.7717 56.4175 47.7494 57.2051 48.4603C57.9927 49.1712 59.0159 49.5647 60.0768 49.5647C61.1378 49.5647 62.161 49.1712 62.9486 48.4603C63.7362 47.7494 64.2321 46.7717 64.3404 45.7163C64.3556 45.5707 64.3625 45.4244 64.361 45.278C64.3659 44.7124 64.2586 44.1514 64.0455 43.6274C63.8324 43.1034 63.5176 42.6268 63.1193 42.2251C62.7211 41.8234 62.2472 41.5046 61.725 41.287C61.2029 41.0694 60.6428 40.9574 60.0772 40.9574C59.5115 40.9574 58.9514 41.0694 58.4293 41.287C57.9071 41.5046 57.4333 41.8234 57.035 42.2251C56.6367 42.6268 56.3219 43.1034 56.1088 43.6274C55.8957 44.1514 55.7885 44.7124 55.7933 45.278C55.7919 45.4244 55.7986 45.5707 55.8133 45.7163ZM48.5219 45.2076C48.5218 42.9221 49.1995 40.6879 50.4692 38.7876C51.7389 36.8873 53.5436 35.4062 55.6551 34.5315C57.7666 33.6569 60.09 33.428 62.3316 33.8739C64.5731 34.3197 66.6322 35.4203 68.2482 37.0364C69.8643 38.6524 70.9648 40.7114 71.4107 42.953C71.8566 45.1946 71.6277 47.518 70.7531 49.6295C69.8784 51.741 68.3973 53.5457 66.497 54.8154C64.5966 56.0851 62.3625 56.7627 60.077 56.7627C57.0125 56.7623 54.0736 55.5448 51.9067 53.3779C49.7398 51.211 48.5222 48.2721 48.5219 45.2076Z" fill="#333333"/>
<path d="M85.85 45.1301C85.85 48.6431 83.4171 50.1773 81.1193 50.1773C78.5464 50.1773 76.5645 48.2944 76.5645 45.2904C76.5645 42.1102 78.6447 40.2432 81.2752 40.2432C84.004 40.2432 85.85 42.225 85.85 45.1301ZM78.3126 45.229C78.3126 47.3095 79.5106 48.881 81.1969 48.881C82.8467 48.881 84.082 47.3295 84.082 45.1871C84.082 43.5787 83.2774 41.5354 81.2333 41.5354C79.1891 41.5354 78.3116 43.4228 78.3116 45.2293" fill="#333333"/>
<path d="M95.9817 47.37C95.9817 48.351 96.0024 49.2169 96.0593 49.9635H94.5292L94.4309 48.4124H94.3896C94.0696 48.9595 93.6098 49.4116 93.0575 49.7224C92.5051 50.0333 91.88 50.1916 91.2463 50.1811C89.7524 50.1811 87.9678 49.3562 87.9678 46.0204V40.4561H89.6951V45.7205C89.6951 47.5262 90.2449 48.7445 91.817 48.7445C92.1384 48.7453 92.4568 48.6822 92.7537 48.5589C93.0506 48.4356 93.32 48.2546 93.5464 48.0263C93.7727 47.798 93.9515 47.5271 94.0723 47.2292C94.193 46.9313 94.2534 46.6123 94.2499 46.2909V40.4561H95.9776V47.37H95.9817Z" fill="#333333"/>
<path d="M104.841 48.195C105.525 48.6224 106.311 48.8591 107.118 48.8806C108.374 48.8806 108.965 48.2526 108.965 47.4687C108.965 46.6442 108.473 46.1928 107.196 45.721C105.49 45.1137 104.686 44.1696 104.686 43.0329C104.686 41.5024 105.92 40.2468 107.964 40.2468C108.78 40.2388 109.585 40.4423 110.299 40.8375L109.868 42.0935C109.282 41.7343 108.609 41.5445 107.922 41.5453C106.901 41.5453 106.33 42.136 106.33 42.8419C106.33 43.6246 106.901 43.9827 108.136 44.4504C109.785 45.0765 110.631 45.9029 110.631 47.3188C110.631 48.9889 109.334 50.1866 107.077 50.1866C106.144 50.1979 105.224 49.9676 104.406 49.5182L104.841 48.195Z" fill="#333333"/>
<path d="M121.726 48.195C122.411 48.6219 123.197 48.8585 124.003 48.8806C125.259 48.8806 125.85 48.2526 125.85 47.4687C125.85 46.6442 125.358 46.1928 124.082 45.721C122.375 45.1137 121.571 44.1696 121.571 43.0329C121.571 41.5024 122.806 40.2468 124.849 40.2468C125.665 40.2387 126.47 40.4422 127.184 40.8375L126.752 42.0935C126.166 41.7339 125.493 41.5436 124.806 41.5438C123.785 41.5438 123.215 42.1345 123.215 42.8404C123.215 43.623 123.785 43.9811 125.02 44.4488C126.669 45.0749 127.515 45.9013 127.515 47.3172C127.515 48.9873 126.218 50.185 123.961 50.185C123.028 50.1963 122.108 49.966 121.29 49.5167L121.726 48.195Z" fill="#333333"/>
<path d="M145.575 43.0288C145.575 42.048 145.554 41.2444 145.497 40.4565H147.006L147.083 41.9867H147.141C147.426 41.4458 147.856 40.9954 148.383 40.6864C148.91 40.3775 149.513 40.2224 150.124 40.2386C150.716 40.2317 151.295 40.4121 151.777 40.7542C152.26 41.0963 152.623 41.5824 152.812 42.1429H152.853C153.116 41.6617 153.476 41.2409 153.911 40.9076C154.512 40.4467 155.256 40.2101 156.013 40.2386C157.268 40.2386 159.135 41.0638 159.135 44.3627V49.9596H157.449V44.5799C157.449 42.7543 156.78 41.6545 155.389 41.6545C154.928 41.6741 154.484 41.8355 154.118 42.1168C153.752 42.3981 153.483 42.7855 153.345 43.226C153.256 43.506 153.21 43.798 153.21 44.0919V49.9637H151.523V44.2688C151.523 42.759 150.855 41.6592 149.542 41.6592C148.463 41.6592 147.674 42.5251 147.4 43.3863C147.304 43.6575 147.258 43.9439 147.264 44.2315V49.9637H145.578V43.0288H145.575Z" fill="#333333"/>
<path d="M161.688 48.195C162.372 48.6219 163.159 48.8586 163.965 48.8806C165.22 48.8806 165.812 48.2526 165.812 47.4687C165.812 46.6442 165.32 46.1928 164.044 45.721C162.337 45.1137 161.532 44.1696 161.532 43.0329C161.532 41.5024 162.768 40.2468 164.811 40.2468C165.628 40.2387 166.432 40.4422 167.146 40.8375L166.715 42.0935C166.13 41.7338 165.457 41.5436 164.77 41.5438C163.748 41.5438 163.178 42.1345 163.178 42.8404C163.178 43.623 163.748 43.9811 164.984 44.4488C166.633 45.0749 167.479 45.9013 167.479 47.3172C167.479 48.9873 166.181 50.185 163.925 50.185C162.992 50.1963 162.072 49.9661 161.254 49.5167L161.688 48.195Z" fill="#333333"/>
<path d="M118.657 40.4318L116.773 46.004C116.54 46.6892 116.342 47.4894 116.166 47.9818H116.125C115.968 47.4894 115.731 46.6686 115.518 46.0409L113.437 40.4318H111.553L115.066 49.2008C115.129 49.3472 115.169 49.5021 115.185 49.6603C115.165 49.8055 115.119 49.9458 115.05 50.0751C114.721 50.8202 114.224 51.4789 113.597 51.9994C113.152 52.3735 112.639 52.6603 112.087 52.8446L112.555 54.289C113.332 54.1009 114.048 53.7183 114.636 53.1771C115.813 52.1553 116.659 50.4727 117.894 47.2148L120.487 40.4277H118.657V40.4318Z" fill="#333333"/>
<path d="M143.374 45.521C143.411 45.253 143.43 44.9829 143.432 44.7124C143.432 42.9593 142.607 40.2236 139.496 40.2236C136.722 40.2236 135.028 42.4888 135.028 45.361C135.028 48.2332 136.781 50.1819 139.71 50.1819C140.793 50.1903 141.864 49.956 142.845 49.4963L142.414 48.1793C140.966 48.7701 139.882 48.8849 139.074 48.7334C138.745 48.6639 138.428 48.545 138.135 48.3806C136.854 47.598 136.698 45.9389 136.682 45.5864C136.682 45.5617 136.678 45.5203 136.678 45.5203L143.374 45.521ZM139.361 41.4752C141.31 41.4752 141.782 43.1822 141.762 44.2901H136.703C136.843 43.1822 137.611 41.4752 139.362 41.4752" fill="#333333"/>
<path d="M102.71 48.213C102.396 48.4456 102.027 48.5926 101.639 48.6397C101.04 48.6315 100.634 48.2171 100.634 47.0557V41.7036H103.095V40.4727H100.634V37.0874L98.8281 38.3756V46.9558C98.8281 48.0762 99.0579 48.9173 99.5503 49.4289C99.8199 49.7216 100.165 49.9345 100.547 50.0443C100.988 50.1796 101.455 50.2032 101.907 50.1129C102.359 50.0226 102.782 49.8213 103.137 49.5272L102.71 48.213Z" fill="#333333"/>
<path d="M133.569 48.213C133.254 48.4456 132.885 48.5926 132.497 48.6397C131.898 48.6315 131.492 48.2171 131.492 47.0557V41.7036H133.954V40.4727H131.492V37.0874L129.686 38.3756V46.9558C129.686 48.0762 129.916 48.9173 130.409 49.4289C130.678 49.7216 131.023 49.9345 131.406 50.0443C131.846 50.1796 132.314 50.2032 132.766 50.1129C133.218 50.0226 133.64 49.8213 133.995 49.5272L133.569 48.213Z" fill="#333333"/>
</svg>
