<svg width="216" height="90" viewBox="0 0 216 90" fill="none" xmlns="http://www.w3.org/2000/svg">
<path d="M172.956 43.8515V41.5668H170.119V38.0149L170.024 38.0444L167.359 38.8597L167.306 38.8757V41.5669H163.1V40.0677C163.1 39.3696 163.256 38.8353 163.564 38.4791C163.869 38.127 164.306 37.9481 164.864 37.9481C165.264 37.9481 165.679 38.0425 166.097 38.2286L166.201 38.2753V35.8692L166.152 35.8511C165.763 35.7111 165.233 35.6406 164.576 35.6406C163.749 35.6406 162.997 35.8207 162.341 36.1776C161.685 36.535 161.169 37.0453 160.807 37.694C160.447 38.3419 160.264 39.0903 160.264 39.9185V41.5668H158.289V43.8515H160.264V53.4766H163.1V43.8515H167.306V49.9681C167.306 52.4872 168.495 53.7638 170.838 53.7638C171.223 53.7638 171.628 53.7187 172.042 53.6303C172.463 53.5396 172.75 53.449 172.919 53.3522L172.957 53.3301V51.0243L172.841 51.1005C172.687 51.2031 172.496 51.2869 172.271 51.3492C172.045 51.4127 171.857 51.4445 171.711 51.4445C171.162 51.4445 170.756 51.2966 170.504 51.0047C170.249 50.7101 170.119 50.1949 170.119 49.4743V43.8515H172.956ZM151.955 51.4449C150.926 51.4449 150.114 51.1036 149.542 50.4312C148.967 49.7555 148.675 48.7921 148.675 47.568C148.675 46.3051 148.967 45.3167 149.543 44.6291C150.115 43.9459 150.919 43.5992 151.932 43.5992C152.916 43.5992 153.698 43.9303 154.259 44.5839C154.823 45.241 155.109 46.2215 155.109 47.499C155.109 48.7923 154.84 49.7858 154.309 50.4503C153.783 51.1098 152.991 51.4449 151.955 51.4449ZM152.081 41.2799C150.117 41.2799 148.558 41.8554 147.445 42.9903C146.334 44.1254 145.77 45.6961 145.77 47.6594C145.77 49.5241 146.321 51.024 147.406 52.1167C148.491 53.2098 149.967 53.7635 151.794 53.7635C153.698 53.7635 155.227 53.18 156.338 52.0294C157.45 50.88 158.013 49.324 158.013 47.4067C158.013 45.5128 157.485 44.0017 156.442 42.9163C155.399 41.8303 153.931 41.2799 152.081 41.2799ZM141.198 41.2799C139.862 41.2799 138.757 41.6216 137.913 42.2953C137.064 42.9731 136.633 43.862 136.633 44.9376C136.633 45.4967 136.726 45.9934 136.909 46.4146C137.093 46.8372 137.378 47.2094 137.756 47.5217C138.132 47.8314 138.712 48.1559 139.48 48.4861C140.126 48.7519 140.608 48.9767 140.914 49.1539C141.213 49.3276 141.425 49.5021 141.545 49.6722C141.661 49.8385 141.721 50.0663 141.721 50.3473C141.721 51.1474 141.121 51.5367 139.888 51.5367C139.431 51.5367 138.909 51.4412 138.338 51.253C137.771 51.0676 137.235 50.796 136.75 50.4479L136.632 50.3635V53.0939L136.676 53.1141C137.077 53.2993 137.583 53.4555 138.179 53.5784C138.774 53.7014 139.315 53.764 139.785 53.764C141.235 53.764 142.402 53.4207 143.254 52.7429C144.111 52.0605 144.545 51.1507 144.545 50.0379C144.545 49.2351 144.312 48.5466 143.851 47.9914C143.393 47.4407 142.598 46.9351 141.49 46.4883C140.607 46.1339 140.041 45.8397 139.808 45.6138C139.583 45.3957 139.469 45.0871 139.469 44.6964C139.469 44.3501 139.61 44.0726 139.899 43.8479C140.191 43.6221 140.597 43.5072 141.106 43.5072C141.579 43.5072 142.062 43.5818 142.543 43.7281C143.023 43.8744 143.445 44.0703 143.798 44.31L143.913 44.3892V41.7991L143.869 41.78C143.544 41.6406 143.115 41.5213 142.595 41.4246C142.077 41.3284 141.607 41.2799 141.198 41.2799ZM129.239 51.4449C128.21 51.4449 127.398 51.1036 126.827 50.4312C126.251 49.7555 125.96 48.7923 125.96 47.568C125.96 46.3051 126.251 45.3167 126.827 44.6291C127.399 43.9459 128.203 43.5992 129.217 43.5992C130.2 43.5992 130.982 43.9303 131.543 44.5839C132.107 45.241 132.393 46.2215 132.393 47.499C132.393 48.7923 132.124 49.7858 131.593 50.4503C131.067 51.1098 130.275 51.4449 129.239 51.4449ZM129.366 41.2799C127.401 41.2799 125.841 41.8554 124.73 42.9903C123.618 44.1254 123.054 45.6961 123.054 47.6594C123.054 49.5249 123.605 51.024 124.69 52.1167C125.775 53.2098 127.252 53.7635 129.078 53.7635C130.982 53.7635 132.511 53.18 133.623 52.0294C134.734 50.88 135.297 49.324 135.297 47.4067C135.297 45.5128 134.769 44.0017 133.726 42.9163C132.682 41.8303 131.215 41.2799 129.366 41.2799ZM118.749 43.6293V41.5668H115.948V53.4764H118.749V47.3842C118.749 46.3483 118.984 45.4972 119.448 44.8544C119.905 44.2192 120.515 43.8974 121.26 43.8974C121.512 43.8974 121.795 43.939 122.102 44.0213C122.406 44.1031 122.626 44.192 122.755 44.2855L122.873 44.3708V41.5465L122.828 41.527C122.567 41.4161 122.198 41.3602 121.731 41.3602C121.027 41.3602 120.397 41.5864 119.857 42.0318C119.383 42.4233 119.041 42.96 118.779 43.6293H118.749ZM110.931 41.2799C109.646 41.2799 108.499 41.5555 107.524 42.0988C106.547 42.6433 105.792 43.4207 105.277 44.4093C104.766 45.3954 104.506 46.5473 104.506 47.8319C104.506 48.9572 104.758 49.9899 105.256 50.9C105.754 51.8116 106.459 52.5248 107.352 53.0194C108.244 53.5134 109.274 53.7639 110.415 53.7639C111.746 53.7639 112.883 53.4977 113.794 52.9728L113.831 52.9517V50.3851L113.713 50.471C113.3 50.7718 112.839 51.0118 112.343 51.1847C111.848 51.3575 111.396 51.4449 111 51.4449C109.901 51.4449 109.019 51.1009 108.378 50.4228C107.736 49.7438 107.411 48.7903 107.411 47.5905C107.411 46.3832 107.75 45.4052 108.419 44.6836C109.086 43.9641 109.97 43.5992 111.046 43.5992C111.967 43.5992 112.865 43.911 113.714 44.5268L113.831 44.6121V41.9078L113.793 41.8864C113.474 41.7076 113.038 41.5599 112.497 41.4479C111.958 41.3362 111.432 41.2799 110.931 41.2799ZM102.576 41.5669H99.7747V53.4764H102.576V41.5669ZM101.204 36.4934C100.743 36.4934 100.341 36.6504 100.01 36.9614C99.6787 37.2734 99.5104 37.6661 99.5104 38.1296C99.5104 38.5857 99.6767 38.9713 100.005 39.2749C100.332 39.5777 100.735 39.7311 101.204 39.7311C101.673 39.7311 102.078 39.5777 102.408 39.2754C102.741 38.9713 102.91 38.5859 102.91 38.1296C102.91 37.6823 102.745 37.2936 102.422 36.974C102.099 36.655 101.689 36.4934 101.204 36.4934ZM94.2142 40.6882V53.4764H97.0733V36.858H93.1162L88.0866 49.2016L83.2056 36.858H79.0875V53.4762H81.7742V40.687H81.8665L87.0206 53.4764H89.0482L94.122 40.6882H94.2142Z" fill="#333333"/>
<path d="M56.2224 44.4832H43.0434V31.3042H56.2224V44.4832Z" fill="#333333"/>
<path d="M70.7735 44.4832H57.5948V31.3042H70.7735V44.4832Z" fill="#333333"/>
<path d="M56.2221 59.0397H43.0435V45.8608H56.2221V59.0397Z" fill="#333333"/>
<path d="M70.7735 59.0397H57.5948V45.8608H70.7735V59.0397Z" fill="#333333"/>
</svg>
