<svg width="216" height="90" viewBox="0 0 216 90" fill="none" xmlns="http://www.w3.org/2000/svg">
<path d="M74.3479 57.6496H140.87M74.3479 54.1917H140.87M103.986 50.5693H137.247M78.135 50.5693H98.5526M78.135 46.9468H137.247M78.135 43.489H137.247M103.986 39.8665H137.247M78.135 39.8665H98.5526M74.3479 36.2441H140.87M74.3479 32.6216H140.87" stroke="#333333" stroke-width="2.52475"/>
<path d="M83.7334 38.3845H92.9542V51.7218H83.7334V38.3845ZM89.1671 31.4689V58.802H87.3559V31.4689H89.1671ZM121.605 31.4689L126.215 43.9828L130.496 31.4689H121.605ZM120.617 43.3242V58.802H131.649V43.3242L126.215 58.6374L120.617 43.3242ZM103.328 31.6335C108.926 31.6335 113.536 39.7017 106.127 45.1355C113.372 50.4045 109.091 58.6374 103.328 58.6374V59.1314H111.396V53.2037L115.018 51.5571V38.8785L111.396 37.2319V31.3042H103.328V31.6335Z" fill="white"/>
</svg>
