<svg width="216" height="90" viewBox="0 0 216 90" fill="none" xmlns="http://www.w3.org/2000/svg">
<path d="M89.3205 58.3054C88.5319 57.4042 87.6119 56.6344 86.5793 55.996C84.8143 54.7944 82.9368 53.818 80.9466 53.0858L71.8592 28.0015C71.6902 27.4946 71.4461 27.0252 71.1269 26.5934C70.0943 25.0162 67.9726 24.5656 66.3955 25.5983C66.0012 25.8611 65.6632 26.1991 65.4003 26.5934C65.0812 27.0252 64.8371 27.4946 64.6681 28.0015L51.7129 63.6752C51.5252 64.1822 51.788 64.7267 52.295 64.9144C52.708 65.0646 53.1399 64.9332 53.4027 64.5765C53.4403 64.5389 53.459 64.5014 53.4778 64.4638C58.4721 56.0335 68.4044 51.8466 77.9237 54.156C78.4306 54.2874 78.9564 54.4376 79.4445 54.6066L81.0968 59.1879V59.2066C81.0968 59.2254 81.7727 61.0091 82.2421 62.2107C82.8054 63.6377 83.838 64.5765 85.1523 64.8769C85.4339 64.9332 85.7156 64.9707 85.9784 64.9707C87.0674 64.952 88.1189 64.5389 88.9074 63.7879C89.7148 63.0556 90.1842 62.023 90.1842 60.934C90.2217 59.9577 89.9025 59.0377 89.3205 58.3054ZM60.4999 54.8507C58.7162 55.8833 57.0827 57.1413 55.6182 58.6058L66.5269 28.5648C66.6395 28.2456 66.8085 27.9452 66.9963 27.6636C67.4281 26.9501 68.3481 26.7436 69.0428 27.1754C69.2493 27.3068 69.4183 27.4758 69.531 27.6636C69.7375 27.9452 69.8877 28.2456 70.0004 28.5648L78.6372 52.316C72.4788 50.7764 65.9824 51.6776 60.4999 54.8507ZM87.6119 62.3609C87.0674 62.8867 86.3164 63.112 85.5841 62.9805C84.9082 62.8303 84.3825 62.3234 84.0633 61.4973C83.6127 60.3332 82.9743 58.6434 82.9368 58.5307L81.8478 55.5266C83.1245 56.1274 84.3637 56.8221 85.5278 57.5919C86.3727 58.1176 87.1613 58.756 87.8184 59.4883C88.5131 60.3519 88.4193 61.6099 87.6119 62.3609Z" fill="#333333"/>
<path d="M72.6665 51.584C66.2828 51.584 60.1432 54.0999 55.6182 58.6061L55.3366 59.3946L53.4966 64.4265C58.4909 55.9963 68.4044 51.8281 77.9237 54.1375C78.4306 54.2689 78.9563 54.4191 79.4445 54.5881L78.6184 52.3162C76.6845 51.8281 74.6755 51.584 72.6665 51.584Z" fill="white"/>
<path d="M89.3205 58.3061C88.5319 57.4048 87.6119 56.635 86.5792 55.9966C84.8143 54.795 82.9368 53.8187 80.9465 53.0864L81.829 55.5273C83.1057 56.1281 84.3449 56.8228 85.509 57.5926C86.3539 58.1183 87.1425 58.7567 87.7996 59.4889C88.1 59.8832 88.269 60.3714 88.269 60.8783H90.2029C90.2029 59.9583 89.9025 59.0383 89.3205 58.3061Z" fill="#080506"/>
<path d="M90.5973 40.2818H89.5646L88.5695 38.0475H83.9507L82.9556 40.2818H81.9792L85.847 31.7576H86.7483L90.5973 40.2818ZM86.2789 32.8842L84.345 37.2026H88.2128L86.2789 32.8842ZM98.0512 36.6581C98.07 37.2213 97.9761 37.7658 97.7883 38.2916C97.6381 38.7234 97.394 39.1365 97.0749 39.4556C96.7557 39.7748 96.3802 40.0189 95.9671 40.1691C95.4977 40.3381 95.0095 40.4132 94.5214 40.4132C94.0332 40.4132 93.545 40.3381 93.0944 40.1691C92.6814 40.0189 92.2871 39.7748 91.9867 39.4744C91.6675 39.1552 91.4234 38.7422 91.2732 38.3103C91.0854 37.8034 91.0103 37.2589 91.0103 36.7144V31.7952H91.9679V36.6769C91.9116 37.4467 92.1556 38.1977 92.6438 38.7985C93.714 39.7748 95.3287 39.7748 96.4177 38.8361C96.8683 38.3667 97.1124 37.672 97.1124 36.752V31.8327H98.07L98.0512 36.6581ZM102.783 40.2818H101.825V32.6964H98.99V31.814H105.637V32.6964H102.801L102.783 40.2818ZM114.123 37.7095C113.917 38.2165 113.616 38.7046 113.241 39.0989C112.846 39.512 112.396 39.8312 111.87 40.0565C110.744 40.5259 109.467 40.5259 108.34 40.0565C107.308 39.6059 106.5 38.7609 106.106 37.7095C105.899 37.165 105.787 36.6018 105.806 36.0385C105.806 35.4564 105.918 34.8932 106.125 34.3675C106.331 33.8605 106.632 33.3723 107.007 32.9781C107.401 32.565 107.852 32.2458 108.378 32.0205C109.504 31.5511 110.781 31.5511 111.908 32.0205C112.94 32.4711 113.748 33.316 114.142 34.3675C114.348 34.9119 114.461 35.4752 114.442 36.0385C114.424 36.6205 114.33 37.1838 114.123 37.7095ZM113.184 34.6866C112.865 33.8605 112.246 33.1846 111.419 32.8278C111.006 32.6401 110.537 32.5462 110.086 32.5462C109.636 32.5462 109.166 32.6401 108.753 32.8091C108.359 32.9781 108.002 33.2409 107.702 33.5601C107.401 33.8793 107.176 34.2548 107.026 34.6679C106.857 35.0997 106.782 35.5691 106.782 36.0197C106.782 36.4891 106.857 36.9585 107.026 37.3903C107.345 38.2165 107.965 38.8924 108.791 39.2491C109.204 39.4369 109.673 39.5308 110.124 39.5308C110.575 39.5308 111.044 39.4369 111.457 39.2679C111.851 39.0989 112.208 38.836 112.508 38.5169C112.809 38.1977 113.034 37.8222 113.184 37.4091C113.353 36.9773 113.428 36.5079 113.428 36.0573C113.447 35.5879 113.353 35.1373 113.184 34.6866ZM119.85 37.9724H119.793L116.714 33.4474V40.3005H115.775V31.8327H116.752L119.831 36.4515L122.91 31.8327H123.886V40.3005H122.948V33.4474L119.85 37.9724ZM133.462 40.2818H132.429L131.434 38.0475H126.815L125.82 40.2818H124.844L128.712 31.7576H129.613L133.462 40.2818ZM129.125 32.8842L127.191 37.2026H131.059L129.125 32.8842ZM136.429 40.2818H135.471V32.6964H132.636V31.814H139.282V32.6964H136.429V40.2818ZM141.273 31.814V40.2818H140.315V31.814H141.273ZM151.036 37.7095C150.829 38.2165 150.529 38.7046 150.154 39.0989C149.759 39.512 149.309 39.8312 148.783 40.0565C147.656 40.5259 146.38 40.5259 145.253 40.0565C144.22 39.6059 143.413 38.7609 143.019 37.7095C142.812 37.165 142.7 36.6018 142.718 36.0385C142.718 35.4564 142.831 34.8932 143.038 34.3675C143.244 33.8605 143.545 33.3723 143.92 32.9781C144.314 32.565 144.765 32.2458 145.291 32.0205C146.417 31.5511 147.694 31.5511 148.82 32.0205C149.853 32.4711 150.66 33.316 151.055 34.3675C151.261 34.9119 151.374 35.4752 151.355 36.0385C151.355 36.6205 151.243 37.1838 151.036 37.7095ZM150.116 34.6866C149.797 33.8605 149.177 33.1846 148.351 32.8278C147.938 32.6401 147.469 32.5462 147.018 32.5462C146.567 32.5462 146.098 32.6401 145.685 32.8091C145.291 32.9781 144.934 33.2409 144.634 33.5601C144.333 33.8793 144.108 34.2548 143.958 34.6679C143.789 35.0997 143.714 35.5691 143.714 36.0197C143.714 36.4891 143.789 36.9585 143.958 37.3903C144.277 38.2165 144.896 38.8924 145.723 39.2491C146.136 39.4369 146.605 39.5308 147.056 39.5308C147.506 39.5308 147.976 39.4369 148.389 39.2679C148.783 39.0989 149.14 38.836 149.44 38.5169C149.74 38.1977 149.966 37.8222 150.116 37.4091C150.285 36.9773 150.36 36.5079 150.36 36.0573C150.36 35.5879 150.285 35.1373 150.116 34.6866ZM158.941 31.814H159.879V40.2818H159.11L153.646 33.3348V40.2818H152.707V31.814H153.608L158.941 38.592V31.814ZM93.2822 44.5626H94.9908L98.6145 53.0868H96.6618L95.892 51.1904H92.3058L91.536 53.0868H89.6397L93.2822 44.5626ZM95.2536 49.5569L94.1271 46.8157L93.0005 49.5569H95.2536ZM99.2341 44.6189H100.943L104.904 49.8386V44.6189H106.744V53.0868H105.148L101.055 47.6981V53.0868H99.2153V44.6189H99.2341ZM110.518 49.7635L107.27 44.6377H109.448L111.476 48.0361L113.522 44.6377H115.644L112.396 49.7259V53.1055H110.537L110.518 49.7635ZM115.85 44.6189H117.841L119.606 50.3455L121.502 44.5814H123.098L124.994 50.3455L126.759 44.6189H128.712L125.82 53.1431H124.206L122.291 47.6043L120.375 53.1431H118.761L115.85 44.6189ZM129.331 44.6189H131.19V47.9798H134.626V44.6189H136.485V53.0868H134.626V49.6884H131.19V53.0868H129.331V44.6189ZM137.968 44.6189H144.352V46.2712H139.808V47.9798H143.789V49.632H139.789V51.4157H144.389V53.068H137.968V44.6189ZM145.554 44.6189H149.421C150.492 44.6189 151.318 44.9006 151.9 45.4826C152.388 45.9896 152.669 46.703 152.632 47.4165V47.4353C152.669 48.0361 152.482 48.6182 152.125 49.1063C151.787 49.5382 151.336 49.8761 150.811 50.0639L152.876 53.0868H150.698L148.877 50.3831H147.412V53.0868H145.554V44.6189ZM149.29 48.7308C149.665 48.7496 150.041 48.6369 150.341 48.4116C150.585 48.1863 150.717 47.8671 150.717 47.5479V47.5292C150.736 47.1912 150.604 46.8532 150.323 46.6279C150.003 46.4026 149.628 46.3087 149.252 46.3275H147.394V48.7684H149.29V48.7308ZM153.702 44.6189H160.086V46.2712H155.542V47.9798H159.541V49.632H155.542V51.4157H160.142V53.068H153.702V44.6189Z" fill="#333333"/>
<path d="M161.738 31.3071H161.194V31.1006H162.527V31.3071H161.982V32.7153H161.757L161.738 31.3071ZM162.827 31.1194H163.071L163.447 31.983C163.484 32.0769 163.522 32.2084 163.522 32.2084C163.522 32.2084 163.559 32.0769 163.597 31.983L163.972 31.1194H164.216L164.348 32.7341H164.123L164.048 31.7202C164.048 31.6263 164.048 31.4761 164.048 31.4761C164.048 31.4761 163.991 31.6263 163.954 31.7202L163.634 32.4524H163.428L163.109 31.7202C163.071 31.6263 163.015 31.4761 163.015 31.4761C163.015 31.4761 163.015 31.6263 163.015 31.7202L162.94 32.7341H162.714L162.827 31.1194Z" fill="#BABCBE"/>
<path d="M121.37 56.5222C121.953 56.5034 122.516 56.6912 122.966 57.0667L122.572 57.6487C122.253 57.3859 121.84 57.2357 121.427 57.2357C120.657 57.1793 120 57.7802 119.944 58.5312C119.944 58.5875 119.944 58.6438 119.944 58.7002C119.887 59.4887 120.488 60.1834 121.277 60.2398C121.314 60.2398 121.352 60.2398 121.389 60.2398C121.784 60.221 122.178 60.0708 122.459 59.7892V59.2822H121.821V58.6438H123.173V60.8969H122.516V60.6904C122.516 60.5965 122.516 60.5026 122.516 60.5026H122.497C122.159 60.803 121.708 60.972 121.258 60.9532C120.094 60.9532 119.136 59.9957 119.155 58.8316C119.155 58.794 119.155 58.7565 119.155 58.7189C119.136 57.5173 120.075 56.541 121.277 56.5034C121.314 56.5222 121.333 56.5222 121.37 56.5222ZM125.388 57.7426C126.29 57.7802 126.966 58.55 126.928 59.4324C126.891 60.3149 126.121 61.0096 125.238 60.972C124.375 60.9345 123.699 60.221 123.699 59.3573C123.699 58.4561 124.431 57.7426 125.332 57.7426C125.351 57.7426 125.37 57.7426 125.388 57.7426ZM125.388 60.3149C125.914 60.3336 126.365 59.9206 126.384 59.3949C126.402 58.8691 125.989 58.4185 125.464 58.3998C124.938 58.381 124.487 58.794 124.468 59.3198C124.468 59.3385 124.468 59.3573 124.468 59.3573C124.45 59.8643 124.844 60.2961 125.332 60.3149C125.37 60.3149 125.37 60.3149 125.388 60.3149ZM129.181 56.5973H129.951V57.9304C129.951 58.0242 129.951 58.0993 129.932 58.1932H129.951C130.157 57.8928 130.514 57.7238 130.871 57.7426C131.697 57.7426 132.242 58.3998 132.242 59.3573C132.242 60.3336 131.641 60.972 130.833 60.972C130.477 60.9908 130.12 60.803 129.913 60.5214H129.895C129.913 60.5965 129.913 60.6528 129.913 60.7279V60.8969H129.181V56.5973ZM130.683 60.3149C131.115 60.3149 131.453 59.9769 131.453 59.3573C131.453 58.7753 131.134 58.381 130.683 58.381C130.289 58.381 129.913 58.6626 129.913 59.3573C129.913 59.8455 130.176 60.3149 130.683 60.3149ZM134.213 57.7426C135.095 57.7426 135.584 58.381 135.584 59.2071C135.584 59.301 135.565 59.5075 135.565 59.5075H133.443C133.481 59.9769 133.894 60.3524 134.363 60.3149C134.682 60.2961 135.002 60.1834 135.246 59.9769L135.546 60.5214C135.208 60.803 134.757 60.972 134.307 60.972C133.443 61.0096 132.692 60.3336 132.655 59.47C132.655 59.4324 132.655 59.3949 132.655 59.3573C132.598 58.5124 133.237 57.7989 134.082 57.7426C134.138 57.7426 134.175 57.7426 134.213 57.7426ZM134.814 58.9818C134.833 58.6626 134.589 58.3622 134.269 58.3434C134.251 58.3434 134.232 58.3434 134.213 58.3434C133.837 58.3247 133.518 58.6063 133.481 58.9818H134.814ZM138.851 61.5165C139.32 61.5165 139.714 61.31 139.714 60.7655V60.5777C139.714 60.5214 139.714 60.4651 139.733 60.4087H139.714C139.526 60.6904 139.207 60.8594 138.851 60.8218C137.968 60.8218 137.461 60.1083 137.461 59.2634C137.461 58.4185 137.931 57.7238 138.832 57.7238C139.189 57.6863 139.527 57.8365 139.752 58.1181H139.771C139.771 58.0806 139.771 58.0618 139.771 58.0242V57.7802H140.484V60.7092C140.484 61.7794 139.658 62.1737 138.851 62.1737C138.475 62.1737 138.1 62.0798 137.762 61.9108L137.987 61.3288C138.269 61.4414 138.569 61.4977 138.851 61.5165ZM139.752 59.2822C139.752 58.5687 139.414 58.3998 138.982 58.3998C138.513 58.3998 138.25 58.7377 138.25 59.2634C138.25 59.8079 138.531 60.2022 139.02 60.2022C139.395 60.1834 139.752 59.9769 139.752 59.2822ZM141.348 57.8177H142.08V58.3434C142.08 58.4185 142.08 58.4936 142.061 58.5687H142.08C142.193 58.1181 142.587 57.7989 143.056 57.7802C143.113 57.7802 143.15 57.7802 143.188 57.7989V58.55C143.131 58.5312 143.075 58.5312 143 58.5312C142.606 58.5312 142.268 58.794 142.155 59.1696C142.099 59.3385 142.08 59.5075 142.08 59.6765V60.8969H141.348V57.8177ZM145.065 57.7426C145.948 57.7426 146.436 58.381 146.436 59.2071C146.436 59.301 146.417 59.5075 146.417 59.5075H144.296C144.333 59.9769 144.746 60.3524 145.216 60.3149C145.535 60.2961 145.854 60.1834 146.098 59.9769L146.398 60.5214C146.06 60.803 145.61 60.972 145.159 60.972C144.296 61.0096 143.544 60.3336 143.507 59.47C143.507 59.4324 143.507 59.3949 143.507 59.3573C143.451 58.5124 144.089 57.7989 144.934 57.7426C144.99 57.7426 145.028 57.7426 145.065 57.7426ZM145.666 58.9818C145.685 58.6626 145.441 58.3622 145.122 58.3434C145.103 58.3434 145.084 58.3434 145.065 58.3434C144.69 58.3247 144.371 58.6063 144.333 58.9818H145.666ZM148.633 58.963H148.727V58.9255C148.727 58.5124 148.464 58.381 148.126 58.381C147.825 58.3998 147.525 58.4936 147.281 58.6814L146.999 58.1369C147.356 57.8928 147.769 57.7614 148.201 57.7614C149.008 57.7614 149.478 58.212 149.478 59.0006V60.8969H148.764V60.6341C148.764 60.559 148.764 60.4838 148.783 60.4087H148.764C148.576 60.7655 148.22 60.972 147.825 60.9532C147.281 60.9908 146.83 60.5965 146.793 60.0708C146.793 60.052 146.793 60.0145 146.793 59.9957C146.811 59.0194 148.145 58.963 148.633 58.963ZM148.051 60.3712C148.464 60.3149 148.764 59.9769 148.745 59.5638V59.4887H148.614C148.22 59.4887 147.581 59.5451 147.581 59.9769C147.581 60.2022 147.769 60.39 147.994 60.39C148.013 60.3712 148.032 60.3712 148.051 60.3712ZM150.416 58.4749H150.022V57.8553H150.435V56.9728H151.186V57.8553H151.881V58.4749H151.186V59.6765C151.167 59.9769 151.393 60.2398 151.693 60.2585C151.731 60.2585 151.768 60.2585 151.787 60.2585C151.843 60.2585 151.881 60.2585 151.918 60.2398V60.9157C151.843 60.9345 151.768 60.9345 151.674 60.9345C151.242 60.9345 150.398 60.803 150.398 59.7704V58.4749H150.416ZM152.538 60.1271H153.308V60.8969H152.538V60.1271Z" fill="#333333"/>
</svg>
