<svg width="216" height="90" viewBox="0 0 216 90" fill="none" xmlns="http://www.w3.org/2000/svg">
<path d="M84.178 27.4876C82.892 27.4648 81.6087 27.6148 80.3625 27.9336C74.3172 29.4449 67.5534 37.2245 74.9428 46.181L79.3529 51.5202L80.5917 53.0377C81.4279 54.0288 82.7968 54.0102 83.8002 53.1864C84.8036 52.3626 85.1009 50.9875 84.2647 49.9779L83.7568 49.3585H83.7754L83.0569 48.5161L79.6378 44.3786C76.4355 40.495 77.8664 35.6822 82.1526 32.9507C85.9929 30.535 93.0168 31.4022 95.4449 35.354C93.9211 30.8447 89.5234 27.6115 84.178 27.4876ZM85.0638 36.9024C84.4939 36.8839 83.8993 37.1007 83.3914 37.5218C82.3818 38.3518 82.0906 39.7207 82.9268 40.7303C82.9268 40.7303 83.0259 40.8542 83.1994 41.0648L87.659 46.4536C90.8675 50.3434 89.4367 55.1251 85.0823 57.869C81.2421 60.2847 74.2181 59.4175 71.7901 55.4658C73.6668 61.0094 79.9661 64.6329 86.9343 62.8986C92.9797 61.3872 99.7435 53.6324 92.3541 44.6697L87.1945 38.389L86.6061 37.6457C86.1911 37.1502 85.6336 36.9024 85.0576 36.8839L85.0638 36.9024Z" fill="#333333"/>
<path d="M106.953 38.3271C104.079 38.3271 100.79 39.8137 100.79 43.3814C100.79 46.7881 103.491 47.7358 106.179 48.3862C108.892 49.0365 111.58 49.4144 111.58 51.6814C111.58 53.9112 109.288 54.3262 107.591 54.3262C105.361 54.3262 103.255 53.521 103.156 50.9071H100.45C100.611 55.3048 103.732 56.9153 107.43 56.9153C110.775 56.9153 114.46 55.5526 114.46 51.3283C114.46 47.8968 111.772 46.9925 109.059 46.274C106.538 45.6236 103.658 45.283 103.658 43.177C103.658 41.3932 105.547 40.91 107.176 40.91C108.973 40.91 110.818 41.6223 111.017 43.8831H113.723C113.494 39.5659 110.583 38.3271 106.953 38.3271ZM122.599 38.3271C118.926 38.3271 115.761 39.8756 115.6 44.2734H118.307C118.431 41.6719 120.128 40.9162 122.426 40.9162C124.148 40.9162 126.099 41.3188 126.099 43.8646C126.099 46.0634 123.621 45.859 120.555 46.4784C117.749 47.0606 114.968 47.9278 114.968 51.9415C114.968 55.4721 117.427 56.9153 120.431 56.9153C122.723 56.9153 124.73 56.0481 126.229 54.1589C126.229 56.0171 127.133 56.9153 128.539 56.9153C129.218 56.9485 129.891 56.7781 130.472 56.4259V54.1589C130.211 54.27 129.931 54.3289 129.648 54.3324C128.781 54.3324 128.793 53.7254 128.793 52.3503V43.208C128.793 39.058 125.572 38.3271 122.599 38.3271ZM136.783 38.3271C133.909 38.3271 130.62 39.8137 130.62 43.3814C130.62 46.7881 133.346 47.7358 136.022 48.3862C138.735 49.0365 141.423 49.4144 141.423 51.6814C141.423 53.9112 139.131 54.3262 137.434 54.3262C135.204 54.3262 133.098 53.521 132.999 50.9071H130.274C130.435 55.3048 133.569 56.9153 137.273 56.9153C140.618 56.9153 144.291 55.5526 144.291 51.3283C144.291 47.8968 141.602 46.9925 138.889 46.274C136.368 45.6236 133.501 45.283 133.501 43.177C133.501 41.3932 135.371 40.91 137 40.91C138.784 40.91 140.642 41.6223 140.841 43.8831H143.566C143.343 39.5597 140.419 38.3271 136.783 38.3271ZM126.068 47.3208V50.3125C126.068 51.9229 124.606 54.32 121.032 54.32C119.372 54.32 117.836 53.6386 117.836 51.7061C117.836 49.5382 119.385 48.8693 121.162 48.5224C122.983 48.1818 125.021 48.1508 126.074 47.3208H126.068ZM98.195 56.141C85.9681 60.0618 92.0816 58.0983 98.195 56.141V56.141Z" fill="black"/>
</svg>
