<svg width="86" height="163" viewBox="0 0 86 163" fill="none" xmlns="http://www.w3.org/2000/svg">
<path d="M2 2.40509C16.9301 27.8095 36.8282 54.129 66.7589 62.4644C71.4262 63.7642 83.0474 65.1892 84.0584 58.0056C84.9456 51.7015 78.6863 42.0229 72.9035 40.0795C57.8526 35.0212 37.0919 33.2971 35.7339 54.5257C34.2555 77.636 46.2185 105.266 56.8028 125.4C61.9366 135.165 68.8919 146.516 76.6522 154.428C81.8037 159.68 79.1713 153.996 78.1132 149.447C76.6085 142.978 73.1337 128.039 76.4652 142.362C77.8189 148.182 80.2177 154.331 82.9292 159.204C85.8283 164.414 77.2696 157.487 75.8526 156.934C71.3854 155.191 64.4567 153.639 59.6992 154.746" stroke="white" stroke-width="3" stroke-linecap="round"/>
</svg>
